STARTFONT 2.1
FONT -FontForge-Comic Sans MS-Book-R-Normal-SansMS-21-200-75-75-P-117-ISO10646-1
SIZE 20 75 75
FONTBOUNDINGBOX 22 26 -1 -6
COMMENT "Generated by fontforge, http://fontforge.sourceforge.net"
COMMENT "(c) 2018 Microsoft Corporation. All Rights Reserved."
STARTPROPERTIES 39
FOUNDRY "FontForge"
FAMILY_NAME "Comic Sans MS"
WEIGHT_NAME "Book"
SLANT "R"
SETWIDTH_NAME "Normal"
ADD_STYLE_NAME "SansMS"
PIXEL_SIZE 21
POINT_SIZE 200
RESOLUTION_X 75
RESOLUTION_Y 75
SPACING "P"
AVERAGE_WIDTH 117
CHARSET_REGISTRY "ISO10646"
CHARSET_ENCODING "1"
FONTNAME_REGISTRY ""
CHARSET_COLLECTIONS "ISO10646-1"
FONT_NAME "ComicSansMS"
FACE_NAME "Comic Sans MS"
COPYRIGHT "(c) 2018 Microsoft Corporation. All Rights Reserved."
FONT_VERSION "5.14"
FONT_ASCENT 17
FONT_DESCENT 4
UNDERLINE_POSITION -4
UNDERLINE_THICKNESS 2
X_HEIGHT 10
CAP_HEIGHT 15
RAW_ASCENT 799
RAW_DESCENT 200
NORM_SPACE 6
RELATIVE_WEIGHT 40
RELATIVE_SETWIDTH 50
SUPERSCRIPT_X 0
SUPERSCRIPT_Y 9
SUPERSCRIPT_SIZE 13
SUBSCRIPT_X 0
SUBSCRIPT_Y 3
SUBSCRIPT_SIZE 13
AVG_LOWERCASE_WIDTH 107
AVG_UPPERCASE_WIDTH 145
ENDPROPERTIES
CHARS 126
STARTCHAR space
ENCODING 32
SWIDTH 298 0
DWIDTH 6 0
BBX 1 1 0 0
BITMAP
00
ENDCHAR
STARTCHAR exclam
ENCODING 33
SWIDTH 237 0
DWIDTH 5 0
BBX 2 18 1 -1
BITMAP
C0
C0
C0
C0
C0
C0
C0
C0
C0
C0
C0
C0
C0
C0
00
00
C0
C0
ENDCHAR
STARTCHAR quotedbl
ENCODING 34
SWIDTH 424 0
DWIDTH 9 0
BBX 7 7 1 9
BITMAP
C6
C6
C6
C6
C6
C6
C6
ENDCHAR
STARTCHAR numbersign
ENCODING 35
SWIDTH 842 0
DWIDTH 18 0
BBX 17 16 0 0
BITMAP
030600
030600
030600
060C00
7FFF80
7FFF80
061800
0C1800
0C1800
0C1800
FFFF00
FFFF00
183000
386000
306000
306000
ENDCHAR
STARTCHAR dollar
ENCODING 36
SWIDTH 693 0
DWIDTH 15 0
BBX 11 23 2 -4
BITMAP
0C00
0C00
0C00
1F80
3FC0
6C00
CC00
CC00
CC00
EC00
7F00
3FC0
0CE0
0C60
0C60
8C60
CDC0
FF80
7F00
0C00
0C00
0C00
0C00
ENDCHAR
STARTCHAR percent
ENCODING 37
SWIDTH 820 0
DWIDTH 17 0
BBX 16 17 1 0
BITMAP
0030
7870
FC60
CC60
CCC0
FCC0
79C0
0180
0380
0300
071C
063E
0E63
0C63
0C63
187E
183C
ENDCHAR
STARTCHAR ampersand
ENCODING 38
SWIDTH 654 0
DWIDTH 14 0
BBX 12 17 1 -1
BITMAP
0700
0780
0D80
0D80
0F80
0F00
0E00
3E60
7360
6360
C1E0
C1E0
C0C0
E1E0
7F60
3E30
0030
ENDCHAR
STARTCHAR quotesingle
ENCODING 39
SWIDTH 388 0
DWIDTH 8 0
BBX 2 7 3 9
BITMAP
C0
C0
C0
C0
C0
C0
C0
ENDCHAR
STARTCHAR parenleft
ENCODING 40
SWIDTH 366 0
DWIDTH 8 0
BBX 6 21 1 -4
BITMAP
0C
1C
38
30
60
60
60
C0
C0
C0
C0
C0
C0
C0
C0
60
60
70
30
1C
0C
ENDCHAR
STARTCHAR parenright
ENCODING 41
SWIDTH 366 0
DWIDTH 8 0
BBX 6 21 1 -4
BITMAP
C0
E0
70
30
18
18
18
0C
0C
0C
0C
0C
0C
0C
0C
18
18
38
30
E0
C0
ENDCHAR
STARTCHAR asterisk
ENCODING 42
SWIDTH 529 0
DWIDTH 10 0
BBX 9 8 0 8
BITMAP
0C00
0C00
FF80
FF80
1E00
3E00
7700
6300
ENDCHAR
STARTCHAR plus
ENCODING 43
SWIDTH 480 0
DWIDTH 10 0
BBX 8 8 1 3
BITMAP
18
18
18
FF
FF
18
18
18
ENDCHAR
STARTCHAR comma
ENCODING 44
SWIDTH 276 0
DWIDTH 6 0
BBX 3 5 2 -4
BITMAP
60
60
40
C0
C0
ENDCHAR
STARTCHAR hyphen
ENCODING 45
SWIDTH 416 0
DWIDTH 9 0
BBX 7 2 1 5
BITMAP
FE
FE
ENDCHAR
STARTCHAR period
ENCODING 46
SWIDTH 249 0
DWIDTH 4 0
BBX 2 3 1 0
BITMAP
C0
C0
C0
ENDCHAR
STARTCHAR slash
ENCODING 47
SWIDTH 511 0
DWIDTH 11 0
BBX 9 17 1 -1
BITMAP
0180
0180
0300
0300
0700
0600
0600
0C00
0C00
1800
3800
3000
7000
6000
6000
C000
C000
ENDCHAR
STARTCHAR zero
ENCODING 48
SWIDTH 610 0
DWIDTH 13 0
BBX 11 16 1 0
BITMAP
0F00
3F80
71C0
60C0
E060
C060
C060
C060
C060
C060
C060
E0E0
60C0
71C0
3F80
1F00
ENDCHAR
STARTCHAR one
ENCODING 49
SWIDTH 450 0
DWIDTH 9 0
BBX 6 16 2 0
BITMAP
30
70
F0
B0
30
30
30
30
30
30
30
30
30
30
FC
FC
ENDCHAR
STARTCHAR two
ENCODING 50
SWIDTH 610 0
DWIDTH 13 0
BBX 9 16 2 0
BITMAP
1E00
7F00
E380
C180
0180
0180
0300
0F00
1C00
3800
7000
E000
C000
C000
FF80
FF80
ENDCHAR
STARTCHAR three
ENCODING 51
SWIDTH 610 0
DWIDTH 13 0
BBX 10 16 2 0
BITMAP
1F00
7F80
61C0
00C0
00C0
01C0
0F80
1F00
0380
01C0
00C0
00C0
C0C0
E180
7F80
3E00
ENDCHAR
STARTCHAR four
ENCODING 52
SWIDTH 610 0
DWIDTH 13 0
BBX 11 16 1 0
BITMAP
0180
0380
0780
0580
0D80
1980
1980
3180
3180
6180
FFE0
FFE0
0180
0180
0180
0180
ENDCHAR
STARTCHAR five
ENCODING 53
SWIDTH 610 0
DWIDTH 13 0
BBX 11 16 1 0
BITMAP
FFC0
FFC0
6000
C000
DF00
FFC0
F0C0
E060
C060
0060
0060
0060
C0C0
E1C0
7F80
3E00
ENDCHAR
STARTCHAR six
ENCODING 54
SWIDTH 610 0
DWIDTH 13 0
BBX 11 16 1 0
BITMAP
0300
0700
1E00
1800
3000
6000
7F00
FFC0
E0E0
C060
C060
C060
E0E0
71C0
7F80
1F00
ENDCHAR
STARTCHAR seven
ENCODING 55
SWIDTH 610 0
DWIDTH 13 0
BBX 12 16 1 0
BITMAP
FFF0
FFF0
00E0
01C0
0180
0380
0300
0700
0600
0E00
0C00
0C00
1C00
1800
3800
3000
ENDCHAR
STARTCHAR eight
ENCODING 56
SWIDTH 610 0
DWIDTH 13 0
BBX 10 16 2 0
BITMAP
1F00
7F80
E1C0
C0C0
C0C0
E1C0
7F80
3F80
7380
E1C0
C0C0
C0C0
C0C0
E1C0
7F80
3E00
ENDCHAR
STARTCHAR nine
ENCODING 57
SWIDTH 610 0
DWIDTH 13 0
BBX 11 17 1 -1
BITMAP
1F00
3F80
61C0
C0E0
C060
C060
C060
C060
61E0
7FC0
1EC0
00C0
0180
0300
0E00
7C00
7000
ENDCHAR
STARTCHAR colon
ENCODING 58
SWIDTH 298 0
DWIDTH 6 0
BBX 2 10 2 1
BITMAP
C0
C0
C0
00
00
00
00
C0
C0
C0
ENDCHAR
STARTCHAR semicolon
ENCODING 59
SWIDTH 298 0
DWIDTH 6 0
BBX 3 13 2 -2
BITMAP
C0
C0
C0
00
00
00
00
00
00
60
60
C0
C0
ENDCHAR
STARTCHAR less
ENCODING 60
SWIDTH 381 0
DWIDTH 8 0
BBX 6 9 0 2
BITMAP
0C
1C
38
70
E0
70
38
1C
0C
ENDCHAR
STARTCHAR equal
ENCODING 61
SWIDTH 510 0
DWIDTH 11 0
BBX 8 8 1 3
BITMAP
FF
FF
00
00
00
00
FF
FF
ENDCHAR
STARTCHAR greater
ENCODING 62
SWIDTH 381 0
DWIDTH 8 0
BBX 7 10 1 2
BITMAP
C0
E0
70
38
1E
0E
1C
70
E0
C0
ENDCHAR
STARTCHAR question
ENCODING 63
SWIDTH 523 0
DWIDTH 11 0
BBX 9 16 1 -1
BITMAP
3C00
FE00
C700
0380
0180
0180
0380
0780
1F00
3C00
3800
2000
0000
6000
6000
6000
ENDCHAR
STARTCHAR at
ENCODING 64
SWIDTH 931 0
DWIDTH 20 0
BBX 17 18 1 -1
BITMAP
07F000
0FFC00
3C1E00
300700
61C300
63C180
C70180
CC6180
CC6180
CCE380
CFFF00
C3BE00
600000
600000
300000
1C1C00
0FFC00
03F000
ENDCHAR
STARTCHAR A
ENCODING 65
SWIDTH 731 0
DWIDTH 16 0
BBX 13 16 1 0
BITMAP
00C0
01C0
03C0
03C0
0760
0760
0E60
1C60
1CE0
3FF0
3F30
7030
7030
E038
E018
C018
ENDCHAR
STARTCHAR B
ENCODING 66
SWIDTH 630 0
DWIDTH 13 0
BBX 10 17 2 -1
BITMAP
FC00
FE00
C700
C180
C180
C180
C380
C700
FF00
FF00
C380
C0C0
C0C0
C1C0
C780
FF00
FC00
ENDCHAR
STARTCHAR C
ENCODING 67
SWIDTH 602 0
DWIDTH 13 0
BBX 11 16 1 0
BITMAP
03E0
0FE0
1C60
1860
3000
7000
6000
E000
C000
C000
C000
C000
C0C0
61C0
7F80
1E00
ENDCHAR
STARTCHAR D
ENCODING 68
SWIDTH 721 0
DWIDTH 15 0
BBX 12 16 2 0
BITMAP
E000
F800
DE00
C780
C1C0
C0E0
C060
C030
C030
C030
C030
C070
C060
C1E0
FFC0
3F00
ENDCHAR
STARTCHAR E
ENCODING 69
SWIDTH 624 0
DWIDTH 13 0
BBX 11 16 1 0
BITMAP
FFC0
FFE0
C000
C000
C000
C000
C7C0
FFC0
FC00
C000
C000
C000
C000
C000
FFC0
7FC0
ENDCHAR
STARTCHAR F
ENCODING 70
SWIDTH 606 0
DWIDTH 13 0
BBX 11 16 2 0
BITMAP
FF80
FFE0
C060
C000
C000
C000
DFC0
FFC0
E000
C000
C000
C000
C000
C000
C000
C000
ENDCHAR
STARTCHAR G
ENCODING 71
SWIDTH 679 0
DWIDTH 14 0
BBX 13 16 1 0
BITMAP
0780
0FE0
1C60
3800
3000
6000
6000
C3F8
CFF8
CE30
C030
C060
C0E0
E1C0
7F80
3E00
ENDCHAR
STARTCHAR H
ENCODING 72
SWIDTH 768 0
DWIDTH 16 0
BBX 13 16 2 0
BITMAP
C018
C018
C018
C018
C018
C018
C018
C1F8
FFF8
FE18
C018
C018
C018
C018
C018
C018
ENDCHAR
STARTCHAR I
ENCODING 73
SWIDTH 546 0
DWIDTH 11 0
BBX 10 16 0 0
BITMAP
FF80
FFC0
0C00
0C00
0C00
0C00
0C00
0C00
0C00
0C00
0C00
0C00
0C00
0C00
FFC0
FFC0
ENDCHAR
STARTCHAR J
ENCODING 74
SWIDTH 665 0
DWIDTH 14 0
BBX 12 16 1 0
BITMAP
1FF0
1FF0
0180
0180
0180
0180
0180
0180
0180
0180
C180
C180
E300
7300
3F00
1E00
ENDCHAR
STARTCHAR K
ENCODING 75
SWIDTH 610 0
DWIDTH 13 0
BBX 10 16 2 0
BITMAP
C180
C380
C700
C600
CC00
D800
F000
E000
E000
F000
D800
CC00
CE00
C700
C3C0
C0C0
ENDCHAR
STARTCHAR L
ENCODING 76
SWIDTH 550 0
DWIDTH 12 0
BBX 10 16 1 0
BITMAP
C000
C000
C000
C000
C000
C000
C000
C000
C000
C000
C000
C000
C000
C000
FFC0
FFC0
ENDCHAR
STARTCHAR M
ENCODING 77
SWIDTH 882 0
DWIDTH 19 0
BBX 17 17 1 -1
BITMAP
080800
180C00
1C1C00
1C1C00
1C1C00
1C1400
363400
363600
363600
376600
636200
636300
63C300
E1C300
E1C180
C1C180
C08180
ENDCHAR
STARTCHAR N
ENCODING 78
SWIDTH 796 0
DWIDTH 17 0
BBX 14 16 2 0
BITMAP
C008
E00C
E00C
F00C
F80C
DC0C
CC0C
C60C
C30C
C38C
C1CC
C0EC
C06C
C03C
C01C
C00C
ENDCHAR
STARTCHAR O
ENCODING 79
SWIDTH 798 0
DWIDTH 17 0
BBX 15 16 1 0
BITMAP
07F0
0FF8
1C1C
380E
7006
6006
E006
C006
C006
C00E
C00C
C01C
6018
7870
3FE0
0FC0
ENDCHAR
STARTCHAR P
ENCODING 80
SWIDTH 520 0
DWIDTH 11 0
BBX 9 16 1 0
BITMAP
FC00
FE00
C700
C180
C180
C180
C380
C700
FE00
FC00
C000
C000
C000
C000
C000
C000
ENDCHAR
STARTCHAR Q
ENCODING 81
SWIDTH 876 0
DWIDTH 18 0
BBX 18 20 0 -4
BITMAP
03F000
0FFC00
1C0E00
380700
600300
600380
C00180
C00180
C00180
C00180
E0C180
60E180
707300
3C3F00
0FFE00
07EE00
000700
000380
0001C0
000080
ENDCHAR
STARTCHAR R
ENCODING 82
SWIDTH 628 0
DWIDTH 13 0
BBX 11 16 1 0
BITMAP
F800
FE00
C700
C380
C1C0
C0C0
C0C0
C1C0
C380
FF00
FC00
DE00
C780
C1C0
C0E0
C060
ENDCHAR
STARTCHAR S
ENCODING 83
SWIDTH 693 0
DWIDTH 15 0
BBX 12 16 2 0
BITMAP
07C0
1FE0
3800
6000
6000
7000
3F80
1FE0
00E0
0030
0030
0030
C070
E0E0
7FC0
3F00
ENDCHAR
STARTCHAR T
ENCODING 84
SWIDTH 679 0
DWIDTH 14 0
BBX 13 16 1 0
BITMAP
FFF8
FFF8
0600
0600
0600
0600
0600
0600
0600
0600
0600
0600
0600
0600
0600
0600
ENDCHAR
STARTCHAR U
ENCODING 85
SWIDTH 736 0
DWIDTH 15 0
BBX 12 16 2 0
BITMAP
C030
C030
C030
C030
C030
C030
C030
C030
C030
C030
C060
E060
6060
70C0
3FC0
1F00
ENDCHAR
STARTCHAR V
ENCODING 86
SWIDTH 649 0
DWIDTH 14 0
BBX 12 16 2 0
BITMAP
C030
C030
C060
4060
6060
60C0
60C0
31C0
3180
3180
1B00
1B00
1B00
0E00
0E00
0E00
ENDCHAR
STARTCHAR W
ENCODING 87
SWIDTH 1039 0
DWIDTH 21 0
BBX 20 16 1 0
BITMAP
C03030
603030
607030
607060
307060
30D860
30D860
11D8C0
1998C0
1998C0
1B0D80
0B0D80
0E0D80
0E0D80
0C0F00
0C0700
ENDCHAR
STARTCHAR X
ENCODING 88
SWIDTH 723 0
DWIDTH 15 0
BBX 14 16 1 0
BITMAP
600C
701C
3838
1830
1C70
0EE0
07C0
0380
0780
07C0
0EE0
1C70
3830
7038
E01C
C00C
ENDCHAR
STARTCHAR Y
ENCODING 89
SWIDTH 635 0
DWIDTH 13 0
BBX 12 16 0 -1
BITMAP
C030
E030
6060
3060
30C0
18C0
1980
0D80
0780
0700
0300
0600
0600
0C00
0C00
0800
ENDCHAR
STARTCHAR Z
ENCODING 90
SWIDTH 693 0
DWIDTH 14 0
BBX 13 16 1 0
BITMAP
FFF8
FFF8
0070
00E0
01C0
0380
0700
0700
0E00
1C00
3800
3800
7000
E000
FFF8
FFF8
ENDCHAR
STARTCHAR bracketleft
ENCODING 91
SWIDTH 376 0
DWIDTH 8 0
BBX 5 21 2 -4
BITMAP
F8
F8
C0
C0
C0
C0
C0
C0
C0
C0
C0
C0
C0
C0
C0
C0
C0
C0
C0
F8
F8
ENDCHAR
STARTCHAR backslash
ENCODING 92
SWIDTH 549 0
DWIDTH 11 0
BBX 8 17 2 -1
BITMAP
C0
C0
60
60
30
30
30
18
18
0C
0C
0C
06
06
06
03
03
ENDCHAR
STARTCHAR bracketright
ENCODING 93
SWIDTH 376 0
DWIDTH 8 0
BBX 5 21 2 -4
BITMAP
F8
F8
18
18
18
18
18
18
18
18
18
18
18
18
18
18
18
18
18
F8
F8
ENDCHAR
STARTCHAR asciicircum
ENCODING 94
SWIDTH 581 0
DWIDTH 12 0
BBX 8 5 2 12
BITMAP
18
3C
6E
C7
C3
ENDCHAR
STARTCHAR underscore
ENCODING 95
SWIDTH 626 0
DWIDTH 13 0
BBX 13 2 0 -3
BITMAP
FFF8
FFF8
ENDCHAR
STARTCHAR grave
ENCODING 96
SWIDTH 556 0
DWIDTH 12 0
BBX 4 5 2 12
BITMAP
C0
E0
60
30
30
ENDCHAR
STARTCHAR a
ENCODING 97
SWIDTH 511 0
DWIDTH 11 0
BBX 10 11 1 0
BITMAP
0F00
3F80
7180
E180
C180
C180
C180
C180
E180
7FC0
3EC0
ENDCHAR
STARTCHAR b
ENCODING 98
SWIDTH 593 0
DWIDTH 12 0
BBX 10 17 1 0
BITMAP
C000
C000
C000
C000
C000
C000
DE00
FF80
E180
C0C0
C0C0
C0C0
C0C0
C1C0
E380
FF00
FE00
ENDCHAR
STARTCHAR c
ENCODING 99
SWIDTH 513 0
DWIDTH 11 0
BBX 9 11 1 0
BITMAP
1E00
3F80
7180
6000
E000
C000
C000
C000
E180
7F80
1E00
ENDCHAR
STARTCHAR d
ENCODING 100
SWIDTH 587 0
DWIDTH 13 0
BBX 10 17 1 0
BITMAP
00C0
00C0
00C0
00C0
00C0
00C0
1EC0
3FC0
61C0
C0C0
C0C0
C0C0
C0C0
C0C0
61C0
7FC0
1EC0
ENDCHAR
STARTCHAR e
ENCODING 101
SWIDTH 547 0
DWIDTH 11 0
BBX 9 11 1 0
BITMAP
1F00
3F80
6180
E380
CF00
FC00
F000
C080
E180
7F00
3E00
ENDCHAR
STARTCHAR f
ENCODING 102
SWIDTH 508 0
DWIDTH 11 0
BBX 9 18 1 -1
BITMAP
0780
0F80
0C00
1800
1800
1800
FF80
FF80
1800
1800
1800
1800
1800
1800
1800
1800
1800
1800
ENDCHAR
STARTCHAR g
ENCODING 103
SWIDTH 530 0
DWIDTH 11 0
BBX 9 17 1 -6
BITMAP
1F00
3F80
7180
E180
C180
C180
C380
C380
E780
7D80
3980
0180
0180
0300
0700
FE00
FC00
ENDCHAR
STARTCHAR h
ENCODING 104
SWIDTH 577 0
DWIDTH 11 0
BBX 9 17 1 0
BITMAP
C000
C000
C000
C000
C000
C000
CF00
DF80
F180
E180
C180
C180
C180
C180
C180
C180
C180
ENDCHAR
STARTCHAR i
ENCODING 105
SWIDTH 280 0
DWIDTH 6 0
BBX 2 15 2 0
BITMAP
C0
C0
00
00
C0
C0
C0
C0
C0
C0
C0
C0
C0
C0
C0
ENDCHAR
STARTCHAR j
ENCODING 106
SWIDTH 403 0
DWIDTH 8 0
BBX 7 21 -1 -6
BITMAP
06
06
00
00
06
06
06
06
06
06
06
06
06
06
06
06
C6
C6
66
7C
38
ENDCHAR
STARTCHAR k
ENCODING 107
SWIDTH 540 0
DWIDTH 12 0
BBX 9 16 2 0
BITMAP
C000
C000
C000
C000
C000
C300
C700
CE00
DC00
F800
FC00
FC00
CE00
C700
C380
C180
ENDCHAR
STARTCHAR l
ENCODING 108
SWIDTH 273 0
DWIDTH 6 0
BBX 2 17 2 0
BITMAP
C0
C0
C0
C0
C0
C0
C0
C0
C0
C0
C0
C0
C0
C0
C0
C0
C0
ENDCHAR
STARTCHAR m
ENCODING 109
SWIDTH 776 0
DWIDTH 16 0
BBX 14 11 1 0
BITMAP
CE78
DFFC
FBCC
E30C
C30C
C30C
C30C
C30C
C30C
C30C
C30C
ENDCHAR
STARTCHAR n
ENCODING 110
SWIDTH 523 0
DWIDTH 11 0
BBX 9 11 1 0
BITMAP
CF00
DF80
F980
F180
E180
C180
C180
C180
C180
C180
C180
ENDCHAR
STARTCHAR o
ENCODING 111
SWIDTH 525 0
DWIDTH 11 0
BBX 9 11 1 0
BITMAP
1E00
3F00
6380
E180
C180
C180
C180
C180
6300
7F00
3C00
ENDCHAR
STARTCHAR p
ENCODING 112
SWIDTH 534 0
DWIDTH 11 0
BBX 9 18 1 -6
BITMAP
C000
DE00
FF00
E380
C180
C180
C180
C180
C180
C300
FF00
FE00
C000
C000
C000
C000
C000
C000
ENDCHAR
STARTCHAR q
ENCODING 113
SWIDTH 520 0
DWIDTH 11 0
BBX 9 17 1 -6
BITMAP
0F80
3F80
7180
6180
C180
C180
C180
C180
E380
7F00
3F00
0300
0300
0300
0300
0300
0300
ENDCHAR
STARTCHAR r
ENCODING 114
SWIDTH 480 0
DWIDTH 10 0
BBX 8 11 1 0
BITMAP
CE
DF
F3
E3
C3
C0
C0
C0
C0
C0
C0
ENDCHAR
STARTCHAR s
ENCODING 115
SWIDTH 486 0
DWIDTH 10 0
BBX 8 11 1 0
BITMAP
07
3F
F3
C3
F0
7E
07
03
C3
FF
7C
ENDCHAR
STARTCHAR t
ENCODING 116
SWIDTH 471 0
DWIDTH 10 0
BBX 8 14 1 0
BITMAP
18
18
18
FF
FF
18
18
18
18
18
18
18
18
18
ENDCHAR
STARTCHAR u
ENCODING 117
SWIDTH 520 0
DWIDTH 11 0
BBX 9 11 1 0
BITMAP
C180
C180
C180
C180
C180
C180
C180
C180
C180
FF80
7D80
ENDCHAR
STARTCHAR v
ENCODING 118
SWIDTH 486 0
DWIDTH 10 0
BBX 9 11 1 0
BITMAP
C180
C180
6180
6300
6300
3300
3600
1E00
1E00
0C00
0C00
ENDCHAR
STARTCHAR w
ENCODING 119
SWIDTH 684 0
DWIDTH 14 0
BBX 12 11 1 0
BITMAP
C630
CE30
CE30
CE30
DB60
DB60
DB60
DB60
7360
71C0
71C0
ENDCHAR
STARTCHAR x
ENCODING 120
SWIDTH 590 0
DWIDTH 12 0
BBX 11 11 1 0
BITMAP
6060
70E0
39C0
1B80
0F00
0E00
1F00
3B80
71C0
E0E0
C060
ENDCHAR
STARTCHAR y
ENCODING 121
SWIDTH 520 0
DWIDTH 11 0
BBX 11 17 0 -6
BITMAP
C060
C0E0
E0C0
6180
3180
3300
1B00
1B00
0E00
0E00
0C00
0C00
1800
1800
3000
3000
3000
ENDCHAR
STARTCHAR z
ENCODING 122
SWIDTH 538 0
DWIDTH 11 0
BBX 9 11 1 0
BITMAP
FF80
FF80
0700
0600
0E00
1C00
1800
3800
7000
FF80
FF80
ENDCHAR
STARTCHAR braceleft
ENCODING 123
SWIDTH 366 0
DWIDTH 8 0
BBX 7 21 0 -4
BITMAP
0E
1E
38
30
30
30
30
30
30
70
E0
E0
70
30
30
30
30
30
18
1E
0E
ENDCHAR
STARTCHAR bar
ENCODING 124
SWIDTH 421 0
DWIDTH 9 0
BBX 2 21 4 -4
BITMAP
C0
C0
C0
C0
C0
C0
C0
C0
C0
C0
C0
C0
C0
C0
C0
C0
C0
C0
C0
C0
C0
ENDCHAR
STARTCHAR braceright
ENCODING 125
SWIDTH 366 0
DWIDTH 8 0
BBX 7 21 0 -4
BITMAP
E0
F0
38
18
18
18
18
18
18
1C
0E
0E
1C
18
18
18
18
18
30
F0
E0
ENDCHAR
STARTCHAR asciitilde
ENCODING 126
SWIDTH 597 0
DWIDTH 13 0
BBX 11 5 1 5
BITMAP
3000
7860
E4E0
C3E0
01C0
ENDCHAR
STARTCHAR uni00A0
ENCODING 160
SWIDTH 298 0
DWIDTH 6 0
BBX 1 1 0 0
BITMAP
00
ENDCHAR
STARTCHAR exclamdown
ENCODING 161
SWIDTH 237 0
DWIDTH 5 0
BBX 2 17 1 -1
BITMAP
C0
C0
00
00
C0
C0
C0
C0
C0
C0
C0
C0
C0
C0
C0
C0
C0
ENDCHAR
STARTCHAR cent
ENCODING 162
SWIDTH 623 0
DWIDTH 13 0
BBX 10 18 1 0
BITMAP
0C00
0C00
0C00
1FC0
3FC0
6DC0
6C80
CC00
CC00
CC00
CC00
CC40
CCC0
6D80
7F80
1F00
0C00
0C00
ENDCHAR
STARTCHAR sterling
ENCODING 163
SWIDTH 793 0
DWIDTH 17 0
BBX 15 19 0 -2
BITMAP
01F0
07F8
0E1C
0C0C
1C00
1800
1800
1800
FFF0
FFF0
1800
0C00
0C00
0C00
0C06
0C06
1F06
3FFC
30F8
ENDCHAR
STARTCHAR currency
ENCODING 164
SWIDTH 611 0
DWIDTH 13 0
BBX 13 11 0 2
BITMAP
6000
7038
3FF8
1FE0
38C0
30C0
38C0
3F80
77C0
E070
C030
ENDCHAR
STARTCHAR yen
ENCODING 165
SWIDTH 635 0
DWIDTH 13 0
BBX 11 16 1 0
BITMAP
C060
E060
60E0
70C0
30C0
1880
7DE0
7DE0
0F00
0600
3FC0
3FC0
0600
0600
0600
0600
ENDCHAR
STARTCHAR brokenbar
ENCODING 166
SWIDTH 404 0
DWIDTH 8 0
BBX 2 17 3 0
BITMAP
C0
C0
C0
C0
C0
C0
C0
00
00
C0
C0
C0
C0
C0
C0
C0
C0
ENDCHAR
STARTCHAR section
ENCODING 167
SWIDTH 634 0
DWIDTH 13 0
BBX 9 16 2 0
BITMAP
1E00
3F00
6380
6080
7000
7C00
CF00
C380
E180
3F80
0700
C180
C180
E380
7F00
3E00
ENDCHAR
STARTCHAR dieresis
ENCODING 168
SWIDTH 556 0
DWIDTH 12 0
BBX 8 2 2 12
BITMAP
C3
C3
ENDCHAR
STARTCHAR copyright
ENCODING 169
SWIDTH 795 0
DWIDTH 17 0
BBX 15 14 1 3
BITMAP
03E0
0FF8
3C1C
73CC
67C6
CE06
CC06
CC66
C7E6
C3CC
601C
7038
3FF0
0FC0
ENDCHAR
STARTCHAR ordfeminine
ENCODING 170
SWIDTH 526 0
DWIDTH 11 0
BBX 8 8 1 8
BITMAP
3C
7E
E6
C6
CE
CB
7B
33
ENDCHAR
STARTCHAR guillemotleft
ENCODING 171
SWIDTH 577 0
DWIDTH 12 0
BBX 9 9 0 2
BITMAP
0880
1980
3300
6600
CC00
EE00
3300
1980
1980
ENDCHAR
STARTCHAR logicalnot
ENCODING 172
SWIDTH 480 0
DWIDTH 10 0
BBX 9 5 0 3
BITMAP
FF80
FF80
0180
0180
0180
ENDCHAR
STARTCHAR uni00AD
ENCODING 173
SWIDTH 416 0
DWIDTH 9 0
BBX 7 2 1 5
BITMAP
FE
FE
ENDCHAR
STARTCHAR registered
ENCODING 174
SWIDTH 795 0
DWIDTH 17 0
BBX 15 15 1 2
BITMAP
07E0
1FF8
3818
7FCC
6FEE
CC66
CFE6
CF86
CF06
D9C6
D8CC
601C
7078
3FF0
0FC0
ENDCHAR
STARTCHAR macron
ENCODING 175
SWIDTH 626 0
DWIDTH 13 0
BBX 13 2 0 18
BITMAP
FFF8
FFF8
ENDCHAR
STARTCHAR degree
ENCODING 176
SWIDTH 409 0
DWIDTH 9 0
BBX 7 7 1 10
BITMAP
38
7C
C6
C6
C6
7C
78
ENDCHAR
STARTCHAR plusminus
ENCODING 177
SWIDTH 480 0
DWIDTH 10 0
BBX 8 12 1 -1
BITMAP
18
18
18
FF
FF
18
18
18
00
00
FF
FF
ENDCHAR
STARTCHAR uni00B2
ENCODING 178
SWIDTH 650 0
DWIDTH 14 0
BBX 6 9 4 9
BITMAP
78
FC
CC
0C
18
70
C0
FC
FC
ENDCHAR
STARTCHAR uni00B3
ENCODING 179
SWIDTH 650 0
DWIDTH 14 0
BBX 6 8 4 9
BITMAP
F8
FC
0C
38
1C
0C
FC
F8
ENDCHAR
STARTCHAR acute
ENCODING 180
SWIDTH 556 0
DWIDTH 11 0
BBX 5 5 2 12
BITMAP
18
30
60
C0
80
ENDCHAR
STARTCHAR mu
ENCODING 181
SWIDTH 520 0
DWIDTH 11 0
BBX 12 15 0 -4
BITMAP
1830
1830
1830
3860
3060
3060
3060
30E0
30C0
30C0
7FC0
7FC0
6000
C000
C000
ENDCHAR
STARTCHAR paragraph
ENCODING 182
SWIDTH 693 0
DWIDTH 15 0
BBX 13 18 1 -2
BITMAP
01D8
0FD8
3F98
7998
6198
E198
C198
C198
C198
E3B0
7F30
1F30
0330
0330
0330
0770
0660
0660
ENDCHAR
STARTCHAR periodcentered
ENCODING 183
SWIDTH 249 0
DWIDTH 5 0
BBX 2 3 1 7
BITMAP
C0
C0
C0
ENDCHAR
STARTCHAR cedilla
ENCODING 184
SWIDTH 556 0
DWIDTH 12 0
BBX 5 7 3 -5
BITMAP
60
70
38
18
98
F8
70
ENDCHAR
STARTCHAR uni00B9
ENCODING 185
SWIDTH 650 0
DWIDTH 14 0
BBX 6 9 4 9
BITMAP
30
F0
F0
30
30
30
30
FC
FC
ENDCHAR
STARTCHAR ordmasculine
ENCODING 186
SWIDTH 449 0
DWIDTH 9 0
BBX 8 8 0 9
BITMAP
3C
7E
E7
C3
C3
E7
7E
3C
ENDCHAR
STARTCHAR guillemotright
ENCODING 187
SWIDTH 577 0
DWIDTH 12 0
BBX 9 9 2 2
BITMAP
8800
CC00
6600
3300
1980
3B80
6600
CC00
CC00
ENDCHAR
STARTCHAR onequarter
ENCODING 188
SWIDTH 650 0
DWIDTH 14 0
BBX 11 23 2 -4
BITMAP
0600
1E00
1E00
0600
0600
0600
0600
1F80
1F80
0000
0000
FFE0
FFE0
0000
0200
0600
0E00
1E00
3600
3F80
0600
0600
0600
ENDCHAR
STARTCHAR onehalf
ENCODING 189
SWIDTH 650 0
DWIDTH 14 0
BBX 11 23 2 -4
BITMAP
0600
1E00
1E00
0600
0600
0600
0600
1F80
1F80
0000
0000
FFE0
FFE0
0000
0E00
3F00
3300
2300
0600
1C00
3000
3F00
3F00
ENDCHAR
STARTCHAR threequarters
ENCODING 190
SWIDTH 650 0
DWIDTH 14 0
BBX 11 22 2 -4
BITMAP
3E00
3F00
0300
0700
0F00
0300
0300
3F00
3E00
0000
FFE0
FFE0
0000
0600
0E00
1E00
1E00
7600
7F80
0600
0600
0600
ENDCHAR
ENDFONT
